<?xml version="1.0" encoding="UTF-8" standalone="no"?>
<!DOCTYPE svg PUBLIC "-//W3C//DTD SVG 1.1//EN" "http://www.w3.org/Graphics/SVG/1.1/DTD/svg11.dtd">
<svg width="100%" height="100%" viewBox="0 0 1075 721" version="1.1" xmlns="http://www.w3.org/2000/svg" xmlns:xlink="http://www.w3.org/1999/xlink" xml:space="preserve" xmlns:serif="http://www.serif.com/" style="fill-rule:evenodd;clip-rule:evenodd;stroke-miterlimit:1.41421;">
    <rect x="0" y="0" width="1074.8" height="720.472" style="fill:white;"/>
    <path d="M150.333,135.827C105.51,96.73 66.706,50.921 35.433,0L1039.37,0C1008.1,50.921 969.294,96.73 924.47,135.827L150.333,135.827Z" style="fill:rgb(86,86,86);"/>
    <rect x="0" y="0" width="1074.8" height="720.472" style="fill:rgb(51,200,216);fill-opacity:0.760784;"/>
    <g transform="matrix(0.865713,0,0,0.865713,-85.754,-264.628)">
        <text x="268.365px" y="404.03px" style="font-family:'LiberationSerif-Italic', 'Liberation Serif', serif;font-style:italic;font-size:50px;fill:white;">Serving with integrity<tspan x="698.883px 711.383px " y="404.03px 404.03px ">, </tspan>Eastbourne &amp; beyond.</text>
    </g>
    <g transform="matrix(1.00037,0,0,1.00216,0.0129324,-0.159497)">
        <rect x="-0.013" y="165.157" width="1074.4" height="553.922" style="fill:white;"/>
    </g>
    <g transform="matrix(1.18615,0,0,1.18615,-78.6251,-179.233)">
        <text x="116.114px" y="345.614px" style="font-family:'LiberationSans', 'Liberation Sans', sans-serif;font-size:27.95px;fill:rgb(35,31,32);">Mrs Marina Brierley - Director and Legal Consultant</text>
        <text x="116.114px" y="401.62px" style="font-family:'LiberationSans', 'Liberation Sans', sans-serif;font-size:27.95px;fill:rgb(35,31,32);">www<tspan x="175.127px 182.892px " y="401.62px 401.62px ">.g</tspan>oldcrestlegal.co.uk</text>
        <text x="116.114px" y="457.704px" style="font-family:'LiberationSans', 'Liberation Sans', sans-serif;font-size:26.357px;fill:rgb(35,31,32);">Email: mb@goldcrestlegal.co.uk</text>
        <text x="116.114px" y="510.518px" style="font-family:'LiberationSans', 'Liberation Sans', sans-serif;font-size:26.357px;fill:rgb(35,31,32);">T<tspan x="129.293px 143.951px " y="510.518px 510.518px ">el</tspan>ephone: 01323 332543</text>
    </g>
    <g transform="matrix(0.373653,0,0,0.373653,584.632,483.142)">
        <g transform="matrix(4.16667,0,0,4.16667,-956.544,0)">
            <path d="M283.317,71.646L280.829,78.72L285.735,78.72L283.317,71.646ZM287.505,83.986L286.408,80.781L280.112,80.781L279.019,83.986L276.437,83.986L282.286,68.036L284.233,68.036L290.083,83.986L287.505,83.986Z" style="fill:rgb(35,31,32);fill-rule:nonzero;"/>
        </g>
        <g transform="matrix(4.16667,0,0,4.16667,-956.544,0)">
            <path d="M297.479,70.206L293.982,70.206L293.982,75.519L297.479,75.519C299.154,75.519 300.297,74.552 300.297,72.878C300.297,71.197 299.154,70.206 297.479,70.206ZM297.61,77.712L293.982,77.712L293.982,83.986L291.562,83.986L291.562,68.036L297.61,68.036C300.724,68.036 302.72,70.097 302.72,72.878C302.72,75.654 300.724,77.712 297.61,77.712Z" style="fill:rgb(35,31,32);fill-rule:nonzero;"/>
        </g>
        <g transform="matrix(4.16667,0,0,4.16667,-956.544,0)">
            <path d="M310.781,70.206L307.29,70.206L307.29,75.519L310.781,75.519C312.465,75.519 313.605,74.552 313.605,72.878C313.605,71.197 312.465,70.206 310.781,70.206ZM310.918,77.712L307.29,77.712L307.29,83.986L304.867,83.986L304.867,68.036L310.918,68.036C314.031,68.036 316.025,70.097 316.025,72.878C316.025,75.654 314.031,77.712 310.918,77.712Z" style="fill:rgb(35,31,32);fill-rule:nonzero;"/>
        </g>
        <g transform="matrix(4.16667,0,0,4.16667,-956.544,0)">
            <path d="M324.181,70.206L320.596,70.206L320.596,75.204L324.181,75.204C325.79,75.204 326.893,74.288 326.893,72.719C326.893,71.152 325.79,70.206 324.181,70.206ZM326.981,83.986L323.621,77.265L320.596,77.265L320.596,83.986L318.175,83.986L318.175,68.036L324.36,68.036C327.384,68.036 329.311,69.985 329.311,72.696C329.311,74.981 327.92,76.436 326.13,76.932L329.802,83.986L326.981,83.986Z" style="fill:rgb(35,31,32);fill-rule:nonzero;"/>
        </g>
        <g transform="matrix(4.16667,0,0,4.16667,-956.544,0)">
            <path d="M339.594,71.06C339.033,70.455 338.161,70.079 337.218,70.079C336.277,70.079 335.403,70.455 334.845,71.06C334.06,71.912 333.903,72.81 333.903,76.013C333.903,79.214 334.06,80.111 334.845,80.96C335.403,81.57 336.277,81.948 337.218,81.948C338.161,81.948 339.033,81.57 339.594,80.96C340.377,80.111 340.535,79.214 340.535,76.013C340.535,72.81 340.377,71.912 339.594,71.06ZM341.432,82.419C340.336,83.517 338.923,84.12 337.218,84.12C335.518,84.12 334.127,83.517 333.028,82.419C331.46,80.85 331.483,79.078 331.483,76.013C331.483,72.942 331.46,71.174 333.028,69.605C334.127,68.506 335.518,67.902 337.218,67.902C338.923,67.902 340.336,68.506 341.432,69.605C342.996,71.174 342.954,72.942 342.954,76.013C342.954,79.078 342.996,80.85 341.432,82.419Z" style="fill:rgb(35,31,32);fill-rule:nonzero;"/>
        </g>
        <g transform="matrix(4.16667,0,0,4.16667,-956.544,0)">
            <path d="M350.683,83.986L348.798,83.986L343.56,68.036L346.065,68.036L349.739,79.643L353.414,68.036L355.968,68.036L350.683,83.986Z" style="fill:rgb(35,31,32);fill-rule:nonzero;"/>
        </g>
        <g transform="matrix(4.16667,0,0,4.16667,-956.544,0)">
            <path d="M357.381,83.986L357.381,68.036L367.576,68.036L367.576,70.206L359.802,70.206L359.802,74.871L366.431,74.871L366.431,77.021L359.802,77.021L359.802,81.813L367.576,81.813L367.576,83.986L357.381,83.986Z" style="fill:rgb(35,31,32);fill-rule:nonzero;"/>
        </g>
        <g transform="matrix(4.16667,0,0,4.16667,-956.544,0)">
            <path d="M378.167,71.286C377.5,70.544 376.603,70.206 375.461,70.206L372.524,70.206L372.524,81.813L375.461,81.813C376.603,81.813 377.5,81.478 378.167,80.736C378.999,79.82 379.022,78.094 379.022,75.904C379.022,73.704 378.999,72.202 378.167,71.286ZM379.829,82.484C378.821,83.492 377.365,83.986 375.704,83.986L370.106,83.986L370.106,68.036L375.704,68.036C377.365,68.036 378.821,68.528 379.829,69.536C381.551,71.264 381.44,73.595 381.44,75.904C381.44,78.204 381.551,80.76 379.829,82.484Z" style="fill:rgb(35,31,32);fill-rule:nonzero;"/>
        </g>
        <g transform="matrix(4.16667,0,0,4.16667,-956.544,0)">
            <path d="M392.754,84.12C391.098,84.12 389.663,83.517 388.567,82.419C386.997,80.85 387.019,79.078 387.019,76.013C387.019,72.942 386.997,71.17 388.567,69.605C389.663,68.506 391.098,67.902 392.754,67.902C395.689,67.902 397.884,69.628 398.442,72.81L395.979,72.81C395.599,71.197 394.524,70.079 392.754,70.079C391.813,70.079 390.963,70.434 390.403,71.036C389.618,71.89 389.437,72.81 389.437,76.013C389.437,79.214 389.618,80.131 390.403,80.985C390.963,81.588 391.813,81.948 392.754,81.948C394.524,81.948 395.622,80.83 396.001,79.214L398.442,79.214C397.906,82.395 395.644,84.12 392.754,84.12Z" style="fill:rgb(35,31,32);fill-rule:nonzero;"/>
        </g>
        <g transform="matrix(4.16667,0,0,4.16667,-956.544,0)">
            <path d="M408.413,71.06C407.854,70.455 406.98,70.079 406.039,70.079C405.096,70.079 404.222,70.455 403.664,71.06C402.881,71.912 402.722,72.81 402.722,76.013C402.722,79.214 402.881,80.111 403.664,80.96C404.222,81.57 405.096,81.948 406.039,81.948C406.98,81.948 407.854,81.57 408.413,80.96C409.198,80.111 409.354,79.214 409.354,76.013C409.354,72.81 409.198,71.912 408.413,71.06ZM410.25,82.419C409.152,83.517 407.743,84.12 406.039,84.12C404.338,84.12 402.946,83.517 401.849,82.419C400.282,80.85 400.304,79.078 400.304,76.013C400.304,72.942 400.282,71.174 401.849,69.605C402.946,68.506 404.338,67.902 406.039,67.902C407.743,67.902 409.152,68.506 410.25,69.605C411.817,71.174 411.775,72.942 411.775,76.013C411.775,79.078 411.817,80.85 410.25,82.419Z" style="fill:rgb(35,31,32);fill-rule:nonzero;"/>
        </g>
        <g transform="matrix(4.16667,0,0,4.16667,-956.544,0)">
            <path d="M422.639,71.286C421.966,70.544 421.071,70.206 419.928,70.206L416.992,70.206L416.992,81.813L419.928,81.813C421.071,81.813 421.966,81.478 422.639,80.736C423.469,79.82 423.494,78.094 423.494,75.904C423.494,73.704 423.469,72.202 422.639,71.286ZM424.297,82.484C423.289,83.492 421.833,83.986 420.178,83.986L414.577,83.986L414.577,68.036L420.178,68.036C421.833,68.036 423.289,68.528 424.297,69.536C426.022,71.264 425.911,73.595 425.911,75.904C425.911,78.204 426.022,80.76 424.297,82.484Z" style="fill:rgb(35,31,32);fill-rule:nonzero;"/>
        </g>
        <g transform="matrix(4.16667,0,0,4.16667,-956.544,0)">
            <path d="M428.709,83.986L428.709,68.036L438.902,68.036L438.902,70.206L431.128,70.206L431.128,74.871L437.759,74.871L437.759,77.021L431.128,77.021L431.128,81.813L438.902,81.813L438.902,83.986L428.709,83.986Z" style="fill:rgb(35,31,32);fill-rule:nonzero;"/>
        </g>
        <g transform="matrix(4.16667,0,0,4.16667,-956.544,0)">
            <path d="M280.628,92.066L280.628,101.021L279.059,101.021L279.059,92.066L276.2,92.066L276.2,90.657L283.48,90.657L283.48,92.066L280.628,92.066Z" style="fill:rgb(35,31,32);fill-rule:nonzero;"/>
        </g>
        <g transform="matrix(4.16667,0,0,4.16667,-956.544,0)">
            <path d="M289.027,92.066L286.701,92.066L286.701,95.316L289.027,95.316C290.08,95.316 290.795,94.717 290.795,93.695C290.795,92.678 290.08,92.066 289.027,92.066ZM290.851,101.021L288.663,96.655L286.701,96.655L286.701,101.021L285.125,101.021L285.125,90.657L289.144,90.657C291.115,90.657 292.365,91.923 292.365,93.684C292.365,95.168 291.464,96.12 290.301,96.433L292.686,101.021L290.851,101.021Z" style="fill:rgb(35,31,32);fill-rule:nonzero;"/>
        </g>
        <g transform="matrix(4.16667,0,0,4.16667,-956.544,0)">
            <path d="M297.755,93.005L296.14,97.604L299.322,97.604L297.755,93.005ZM300.48,101.026L299.765,98.941L295.673,98.941L294.961,101.026L293.283,101.026L297.087,90.657L298.35,90.657L302.154,101.026L300.48,101.026Z" style="fill:rgb(35,31,32);fill-rule:nonzero;"/>
        </g>
        <g transform="matrix(4.16667,0,0,4.16667,-956.544,0)">
            <path d="M308.721,92.767C308.281,92.285 307.702,92.066 306.957,92.066L305.055,92.066L305.055,99.611L306.957,99.611C307.702,99.611 308.281,99.395 308.721,98.912C309.262,98.317 309.272,97.193 309.272,95.765C309.272,94.342 309.262,93.367 308.721,92.767ZM309.8,100.05C309.146,100.704 308.2,101.021 307.118,101.021L303.479,101.021L303.479,90.657L307.118,90.657C308.2,90.657 309.146,90.977 309.8,91.632C310.92,92.752 310.849,94.268 310.849,95.765C310.849,97.267 310.92,98.927 309.8,100.05Z" style="fill:rgb(35,31,32);fill-rule:nonzero;"/>
        </g>
        <g transform="matrix(4.16667,0,0,4.16667,-956.544,0)">
            <rect x="313.032" y="90.657" width="1.576" height="10.364" style="fill:rgb(35,31,32);fill-rule:nonzero;"/>
        </g>
        <g transform="matrix(4.16667,0,0,4.16667,-956.544,0)">
            <path d="M323.535,101.021L318.743,93.724L318.743,101.021L317.169,101.021L317.169,90.657L318.609,90.657L323.403,97.937L323.403,90.657L324.972,90.657L324.972,101.021L323.535,101.021Z" style="fill:rgb(35,31,32);fill-rule:nonzero;"/>
        </g>
        <g transform="matrix(4.16667,0,0,4.16667,-956.544,0)">
            <path d="M333.743,99.936C332.956,100.762 331.977,101.111 330.886,101.111C329.813,101.111 328.879,100.72 328.166,100.003C327.146,98.986 327.163,97.837 327.163,95.837C327.163,93.841 327.146,92.694 328.166,91.675C328.879,90.957 329.782,90.566 330.886,90.566C333.086,90.566 334.373,92.008 334.664,93.787L333.07,93.787C332.809,92.649 332.053,91.981 330.886,91.981C330.283,91.981 329.722,92.225 329.355,92.623C328.851,93.174 328.734,93.754 328.734,95.837C328.734,97.917 328.851,98.523 329.355,99.07C329.722,99.468 330.283,99.697 330.886,99.697C331.575,99.697 332.167,99.44 332.576,98.97C332.956,98.537 333.101,98.011 333.101,97.336L333.101,96.755L330.886,96.755L330.886,95.414L334.679,95.414L334.679,97.001C334.679,98.34 334.434,99.204 333.743,99.936Z" style="fill:rgb(35,31,32);fill-rule:nonzero;"/>
        </g>
        <g transform="matrix(4.16667,0,0,4.16667,-956.544,0)">
            <path d="M339.979,101.111C338.421,101.111 337.299,100.748 336.309,99.741L337.355,98.708C338.112,99.468 338.946,99.697 340.006,99.697C341.358,99.697 342.145,99.117 342.145,98.109C342.145,97.658 342.015,97.281 341.738,97.035C341.479,96.786 341.217,96.681 340.605,96.596L339.375,96.418C338.532,96.303 337.865,96.015 337.413,95.593C336.903,95.11 336.657,94.455 336.657,93.611C336.657,91.809 337.967,90.566 340.122,90.566C341.49,90.566 342.453,90.919 343.344,91.748L342.339,92.741C341.697,92.124 340.951,91.938 340.079,91.938C338.857,91.938 338.184,92.636 338.184,93.552C338.184,93.93 338.302,94.268 338.58,94.513C338.841,94.746 339.261,94.92 339.742,94.996L340.921,95.168C341.881,95.316 342.426,95.548 342.858,95.939C343.43,96.433 343.708,97.179 343.708,98.067C343.708,99.973 342.145,101.111 339.979,101.111Z" style="fill:rgb(35,31,32);fill-rule:nonzero;"/>
        </g>
        <g transform="matrix(4.16667,0,0,4.16667,-956.544,0)">
            <path d="M349.183,92.066L349.183,101.021L347.61,101.021L347.61,92.066L344.753,92.066L344.753,90.657L352.038,90.657L352.038,92.066L349.183,92.066Z" style="fill:rgb(35,31,32);fill-rule:nonzero;"/>
        </g>
        <g transform="matrix(4.16667,0,0,4.16667,-956.544,0)">
            <path d="M356.041,93.005L354.422,97.604L357.616,97.604L356.041,93.005ZM358.762,101.026L358.052,98.941L353.957,98.941L353.24,101.026L351.57,101.026L355.372,90.657L356.637,90.657L360.441,101.026L358.762,101.026Z" style="fill:rgb(35,31,32);fill-rule:nonzero;"/>
        </g>
        <g transform="matrix(4.16667,0,0,4.16667,-956.544,0)">
            <path d="M368.127,101.021L363.335,93.724L363.335,101.021L361.762,101.021L361.762,90.657L363.206,90.657L367.993,97.937L367.993,90.657L369.574,90.657L369.574,101.021L368.127,101.021Z" style="fill:rgb(35,31,32);fill-rule:nonzero;"/>
        </g>
        <g transform="matrix(4.16667,0,0,4.16667,-956.544,0)">
            <path d="M377.379,92.767C376.938,92.285 376.357,92.066 375.618,92.066L373.707,92.066L373.707,99.611L375.618,99.611C376.357,99.611 376.938,99.395 377.379,98.912C377.915,98.317 377.93,97.193 377.93,95.765C377.93,94.342 377.915,93.367 377.379,92.767ZM378.458,100.05C377.797,100.704 376.851,101.021 375.774,101.021L372.133,101.021L372.133,90.657L375.774,90.657C376.851,90.657 377.797,90.977 378.458,91.632C379.578,92.752 379.502,94.268 379.502,95.765C379.502,97.267 379.578,98.927 378.458,100.05Z" style="fill:rgb(35,31,32);fill-rule:nonzero;"/>
        </g>
        <g transform="matrix(4.16667,0,0,4.16667,-956.544,0)">
            <path d="M384.777,93.005L383.159,97.604L386.348,97.604L384.777,93.005ZM387.497,101.026L386.788,98.941L382.691,98.941L381.98,101.026L380.302,101.026L384.102,90.657L385.374,90.657L389.178,101.026L387.497,101.026Z" style="fill:rgb(35,31,32);fill-rule:nonzero;"/>
        </g>
        <g transform="matrix(4.16667,0,0,4.16667,-956.544,0)">
            <path d="M394.401,92.066L392.075,92.066L392.075,95.316L394.401,95.316C395.452,95.316 396.16,94.717 396.16,93.695C396.16,92.678 395.452,92.066 394.401,92.066ZM396.225,101.021L394.037,96.655L392.075,96.655L392.075,101.021L390.501,101.021L390.501,90.657L394.521,90.657C396.487,90.657 397.739,91.923 397.739,93.684C397.739,95.168 396.835,96.12 395.671,96.433L398.06,101.021L396.225,101.021Z" style="fill:rgb(35,31,32);fill-rule:nonzero;"/>
        </g>
        <g transform="matrix(4.16667,0,0,4.16667,-956.544,0)">
            <path d="M405.139,92.767C404.701,92.285 404.117,92.066 403.373,92.066L401.466,92.066L401.466,99.611L403.373,99.611C404.117,99.611 404.701,99.395 405.139,98.912C405.673,98.317 405.691,97.193 405.691,95.765C405.691,94.342 405.673,93.367 405.139,92.767ZM406.214,100.05C405.559,100.704 404.613,101.021 403.536,101.021L399.893,101.021L399.893,90.657L403.536,90.657C404.613,90.657 405.559,90.977 406.214,91.632C407.336,92.752 407.264,94.268 407.264,95.765C407.264,97.267 407.336,98.927 406.214,100.05Z" style="fill:rgb(35,31,32);fill-rule:nonzero;"/>
        </g>
        <g transform="matrix(4.16667,0,0,4.16667,-956.544,0)">
            <path d="M412.202,101.111C410.642,101.111 409.521,100.748 408.534,99.741L409.575,98.708C410.335,99.468 411.168,99.697 412.229,99.697C413.585,99.697 414.37,99.117 414.37,98.109C414.37,97.658 414.24,97.281 413.963,97.035C413.704,96.786 413.44,96.681 412.826,96.596L411.605,96.418C410.758,96.303 410.087,96.015 409.638,95.593C409.13,95.11 408.882,94.455 408.882,93.611C408.882,91.809 410.188,90.566 412.345,90.566C413.717,90.566 414.675,90.919 415.565,91.748L414.56,92.741C413.918,92.124 413.172,91.938 412.306,91.938C411.082,91.938 410.409,92.636 410.409,93.552C410.409,93.93 410.527,94.268 410.802,94.513C411.066,94.746 411.486,94.92 411.967,94.996L413.145,95.168C414.105,95.316 414.647,95.548 415.087,95.939C415.652,96.433 415.927,97.179 415.927,98.067C415.927,99.973 414.37,101.111 412.202,101.111Z" style="fill:rgb(35,31,32);fill-rule:nonzero;"/>
        </g>
        <g transform="matrix(4.16667,0,0,4.16667,-956.544,0)">
            <rect x="417.675" y="99.247" width="1.783" height="1.779" style="fill:rgb(35,31,32);fill-rule:nonzero;"/>
        </g>
        <g transform="matrix(4.16667,0,0,4.16667,-956.544,0)">
            <path d="M358.55,49.62C394.428,49.62 427.783,56.789 455.558,69.08L358.55,4.649L261.536,69.08C289.312,56.789 322.663,49.62 358.55,49.62Z" style="fill:rgb(35,31,32);fill-rule:nonzero;"/>
        </g>
        <g transform="matrix(4.16667,0,0,4.16667,-956.544,0)">
            <path d="M365.756,16.929C364.248,13.582 362.399,10.595 360.361,8.063C361.764,10.091 363.052,12.349 364.154,14.8C369.88,27.502 368.678,40.389 361.344,43.695C355.332,46.402 346.758,41.823 340.703,33.083C346.775,43.237 356.315,48.81 362.859,45.863C370.242,42.537 371.48,29.631 365.756,16.929Z" style="fill:white;fill-rule:nonzero;"/>
        </g>
        <g transform="matrix(4.16667,0,0,4.16667,-956.544,0)">
            <path d="M349.276,21.442L349.384,21.442C349.294,22.494 349.256,23.522 349.216,24.549C349.507,24.549 350.475,24.528 351.438,24.485C351.417,24.633 351.417,24.781 351.417,24.93C351.417,25.077 351.417,25.22 351.438,25.369C350.705,25.327 349.717,25.327 349.216,25.327C349.172,25.536 349.067,28.834 349.067,30.659C349.067,32.236 349.109,33.832 350.768,33.832C350.998,33.832 351.438,33.768 351.711,33.683L351.711,34.19C351.23,34.358 350.621,34.503 350.095,34.503C348.354,34.503 347.511,33.515 347.511,31.877C347.511,30.347 347.636,28.456 347.659,25.327C347.243,25.327 346.778,25.327 346.23,25.369C346.252,25.201 346.272,25.052 346.272,24.886C346.272,24.739 346.252,24.614 346.23,24.466C346.863,24.509 347.323,24.528 347.619,24.528C347.596,23.983 347.576,23.082 347.531,22.177L349.276,21.442Z" style="fill:white;fill-rule:nonzero;"/>
        </g>
        <g transform="matrix(4.16667,0,0,4.16667,-956.544,0)">
            <path d="M353.204,32.276C353.497,32.845 354.4,33.726 355.573,33.726C356.624,33.726 357.611,33.073 357.611,31.834C357.611,29.236 352.659,30.766 352.659,27.217C352.659,25.391 353.917,24.045 356.143,24.045C357.171,24.045 357.822,24.423 358.472,24.633C358.242,25.034 358.012,25.809 357.967,26.124L357.717,26.124C357.506,25.453 356.811,24.825 355.868,24.825C355.05,24.825 354.082,25.348 354.082,26.588C354.082,29.316 359.037,27.636 359.037,31.184C359.037,32.78 357.589,34.503 355.263,34.503C353.979,34.503 353.139,34.146 352.551,33.808C352.719,33.454 352.951,32.694 352.951,32.276L353.204,32.276Z" style="fill:white;fill-rule:nonzero;"/>
        </g>
        <g transform="matrix(4.16667,0,0,4.16667,-956.544,0)">
            <path d="M360.678,28.183C360.678,26.922 360.638,25.453 360.51,24.257C360.823,24.319 361.138,24.361 361.456,24.361C361.769,24.361 362.084,24.319 362.399,24.257C362.271,25.453 362.231,26.922 362.231,28.183L362.231,30.367C362.231,31.626 362.271,33.095 362.399,34.293C362.084,34.227 361.769,34.19 361.456,34.19C361.138,34.19 360.823,34.227 360.51,34.293C360.638,33.095 360.678,31.626 360.678,30.367L360.678,28.183ZM361.456,19.53C362.041,19.53 362.524,20.015 362.524,20.603C362.524,21.191 362.041,21.674 361.456,21.674C360.866,21.674 360.385,21.191 360.385,20.603C360.385,20.015 360.866,19.53 361.456,19.53Z" style="fill:white;fill-rule:nonzero;"/>
        </g>
        <g transform="matrix(4.16667,0,0,4.16667,-956.544,0)">
            <path d="M441.253,69.055L441.253,66.914L440.458,66.914L440.458,66.628L442.375,66.628L442.375,66.914L441.575,66.914L441.575,69.055L441.253,69.055Z" style="fill:rgb(35,31,32);fill-rule:nonzero;"/>
        </g>
        <g transform="matrix(4.16667,0,0,4.16667,-956.544,0)">
            <path d="M442.698,69.055L442.698,66.628L443.183,66.628L443.755,68.347C443.809,68.506 443.848,68.624 443.87,68.704C443.9,68.619 443.943,68.486 443.999,68.313L444.582,66.628L445.013,66.628L445.013,69.055L444.705,69.055L444.705,67.024L443.997,69.055L443.708,69.055L443.008,66.992L443.008,69.055L442.698,69.055Z" style="fill:rgb(35,31,32);fill-rule:nonzero;"/>
        </g>
        <g transform="matrix(4.16667,0,0,4.16667,-956.544,0)">
            <path d="M424.683,101.111C422.571,101.111 420.965,99.672 420.965,97.533L420.965,90.657L422.541,90.657L422.541,97.457C422.541,98.84 423.383,99.701 424.683,99.701C425.976,99.701 426.837,98.84 426.837,97.457L426.837,90.657L428.404,90.657L428.404,97.533C428.404,99.672 426.79,101.111 424.683,101.111Z" style="fill:rgb(35,31,32);fill-rule:nonzero;"/>
        </g>
        <g transform="matrix(4.16667,0,0,4.16667,-956.544,0)">
            <path d="M437.042,101.026L434.13,95.91L432.383,98.011L432.383,101.026L430.808,101.026L430.808,90.657L432.383,90.657L432.383,95.87L436.621,90.657L438.542,90.657L435.181,94.717L438.894,101.026L437.042,101.026Z" style="fill:rgb(35,31,32);fill-rule:nonzero;"/>
        </g>
    </g>
    <g transform="matrix(1.18744,0,0,1.18744,-282.579,219.815)">
        <g transform="matrix(1.41306,0,0,1.41306,319.991,226.096)">
            <rect x="108.266" y="1.359" width="2.476" height="16.169" style="fill:rgb(245,130,31);"/>
        </g>
        <g transform="matrix(1.41306,0,0,1.41306,319.991,226.096)">
            <path d="M121.119,17.528L121.119,10.51C121.119,9.618 120.896,8.966 120.449,8.558C120.002,8.149 119.454,7.945 118.803,7.945C118.152,7.945 117.592,8.153 117.123,8.569C116.653,8.986 116.418,9.632 116.418,10.51L116.418,17.528L114.102,17.528L114.102,6.014L116.373,6.014L116.373,7.172C116.767,6.734 117.232,6.408 117.77,6.196C118.307,5.984 118.863,5.878 119.439,5.878C120.029,5.878 120.563,5.969 121.04,6.151C121.517,6.333 121.929,6.589 122.277,6.922C122.716,7.362 123.019,7.85 123.186,8.387C123.352,8.925 123.436,9.519 123.436,10.17L123.436,17.528L121.119,17.528Z" style="fill:rgb(65,64,66);fill-rule:nonzero;"/>
        </g>
        <g transform="matrix(1.41306,0,0,1.41306,319.991,226.096)">
            <path d="M134.949,14.008C134.949,14.614 134.828,15.143 134.586,15.597C134.343,16.051 134.01,16.434 133.586,16.745C133.163,17.055 132.656,17.286 132.065,17.437C131.475,17.588 130.839,17.665 130.158,17.665C129.218,17.665 128.348,17.554 127.546,17.334C126.743,17.116 126.002,16.672 125.32,16.006L126.842,14.485C127.311,14.969 127.837,15.291 128.42,15.45C129.003,15.609 129.582,15.688 130.158,15.688C130.869,15.688 131.467,15.56 131.952,15.302C132.436,15.045 132.678,14.644 132.678,14.099C132.678,13.706 132.561,13.391 132.326,13.157C132.091,12.921 131.694,12.782 131.134,12.736L129.294,12.578C128.205,12.487 127.364,12.188 126.774,11.68C126.184,11.173 125.888,10.413 125.888,9.398C125.888,8.838 126.002,8.338 126.229,7.899C126.456,7.46 126.766,7.093 127.16,6.797C127.553,6.502 128.011,6.275 128.534,6.117C129.056,5.958 129.619,5.878 130.226,5.878C131.088,5.878 131.883,5.977 132.61,6.173C133.337,6.37 133.965,6.704 134.495,7.172L133.042,8.649C132.678,8.346 132.25,8.13 131.758,8.001C131.267,7.873 130.748,7.808 130.203,7.808C129.506,7.808 128.983,7.945 128.636,8.217C128.287,8.49 128.114,8.845 128.114,9.285C128.114,9.632 128.223,9.924 128.442,10.159C128.662,10.394 129.082,10.542 129.703,10.601L131.52,10.76C132.61,10.851 133.454,11.158 134.052,11.68C134.65,12.203 134.949,12.979 134.949,14.008Z" style="fill:rgb(65,64,66);fill-rule:nonzero;"/>
        </g>
        <g transform="matrix(1.41306,0,0,1.41306,319.991,226.096)">
            <path d="M140.399,17.528C139.854,17.528 139.385,17.437 138.991,17.255C138.598,17.074 138.272,16.835 138.015,16.54C137.757,16.245 137.564,15.904 137.436,15.518C137.307,15.132 137.243,14.735 137.243,14.326L137.243,7.99L135.926,7.99L135.926,6.218L137.243,6.218L137.243,2.721L139.559,2.721L139.559,6.218L141.785,6.218L141.785,7.99L139.559,7.99L139.559,14.212C139.559,14.636 139.661,14.965 139.866,15.2C140.07,15.435 140.392,15.552 140.831,15.552L141.785,15.552L141.785,17.528L140.399,17.528Z" style="fill:rgb(65,64,66);fill-rule:nonzero;"/>
        </g>
        <g transform="matrix(1.41306,0,0,1.41306,319.991,226.096)">
            <path d="M144.169,17.528L144.169,6.014L146.485,6.014L146.485,17.528L144.169,17.528ZM144.101,3.744L144.101,1.291L146.554,1.291L146.554,3.744L144.101,3.744Z" style="fill:rgb(65,64,66);fill-rule:nonzero;"/>
        </g>
        <g transform="matrix(1.41306,0,0,1.41306,319.991,226.096)">
            <path d="M153.025,17.528C152.48,17.528 152.011,17.437 151.617,17.255C151.224,17.074 150.898,16.835 150.641,16.54C150.383,16.245 150.19,15.904 150.062,15.518C149.933,15.132 149.869,14.735 149.869,14.326L149.869,7.99L148.552,7.99L148.552,6.218L149.869,6.218L149.869,2.721L152.185,2.721L152.185,6.218L154.411,6.218L154.411,7.99L152.185,7.99L152.185,14.212C152.185,14.636 152.287,14.965 152.492,15.2C152.696,15.435 153.018,15.552 153.457,15.552L154.411,15.552L154.411,17.528L153.025,17.528Z" style="fill:rgb(65,64,66);fill-rule:nonzero;"/>
        </g>
        <g transform="matrix(1.41306,0,0,1.41306,319.991,226.096)">
            <path d="M163.744,17.528L163.744,16.37C163.35,16.809 162.885,17.134 162.348,17.346C161.81,17.558 161.253,17.665 160.678,17.665C160.088,17.665 159.554,17.574 159.077,17.391C158.601,17.209 158.188,16.953 157.84,16.62C157.4,16.18 157.098,15.692 156.931,15.155C156.765,14.618 156.682,14.023 156.682,13.372L156.682,6.014L158.998,6.014L158.998,13.032C158.998,13.925 159.221,14.576 159.668,14.985C160.114,15.393 160.663,15.597 161.314,15.597C161.632,15.597 161.938,15.548 162.234,15.45C162.529,15.352 162.782,15.197 162.995,14.985C163.207,14.773 163.377,14.504 163.506,14.178C163.634,13.853 163.699,13.47 163.699,13.032L163.699,6.014L166.015,6.014L166.015,17.528L163.744,17.528Z" style="fill:rgb(65,64,66);fill-rule:nonzero;"/>
        </g>
        <g transform="matrix(1.41306,0,0,1.41306,319.991,226.096)">
            <path d="M172.555,17.528C172.01,17.528 171.541,17.437 171.147,17.255C170.753,17.074 170.428,16.835 170.171,16.54C169.913,16.245 169.72,15.904 169.592,15.518C169.463,15.132 169.398,14.735 169.398,14.326L169.398,7.99L168.082,7.99L168.082,6.218L169.398,6.218L169.398,2.721L171.715,2.721L171.715,6.218L173.94,6.218L173.94,7.99L171.715,7.99L171.715,14.212C171.715,14.636 171.817,14.965 172.021,15.2C172.226,15.435 172.547,15.552 172.987,15.552L173.94,15.552L173.94,17.528L172.555,17.528Z" style="fill:rgb(65,64,66);fill-rule:nonzero;"/>
        </g>
        <g transform="matrix(1.41306,0,0,1.41306,319.991,226.096)">
            <path d="M183.161,10.829C183.146,10.481 183.119,10.197 183.081,9.977C183.043,9.757 182.964,9.519 182.843,9.261C182.661,8.823 182.373,8.471 181.979,8.206C181.586,7.941 181.117,7.808 180.572,7.808C180.027,7.808 179.553,7.941 179.152,8.206C178.751,8.471 178.46,8.823 178.278,9.261C178.157,9.519 178.081,9.757 178.051,9.977C178.021,10.197 177.998,10.481 177.983,10.829L183.161,10.829ZM177.983,12.441C177.983,13.447 178.232,14.241 178.732,14.82C179.232,15.399 179.958,15.688 180.912,15.688C181.563,15.688 182.089,15.594 182.491,15.405C182.892,15.215 183.297,14.916 183.706,14.507L185.182,15.89C184.878,16.19 184.58,16.448 184.285,16.666C183.989,16.882 183.671,17.066 183.331,17.215C182.99,17.365 182.619,17.477 182.218,17.552C181.817,17.626 181.367,17.665 180.867,17.665C180.14,17.665 179.462,17.562 178.833,17.358C178.205,17.153 177.658,16.82 177.191,16.358C176.725,15.897 176.354,15.288 176.079,14.53C175.804,13.773 175.667,12.85 175.667,11.759C175.667,9.882 176.113,8.433 177.006,7.411C177.899,6.389 179.088,5.878 180.572,5.878C181.344,5.878 182.033,6.014 182.638,6.287C183.244,6.559 183.754,6.938 184.171,7.422C184.587,7.907 184.905,8.49 185.125,9.17C185.344,9.852 185.454,10.601 185.454,11.419L185.454,12.441L177.983,12.441Z" style="fill:rgb(65,64,66);fill-rule:nonzero;"/>
        </g>
        <g transform="matrix(1.41306,0,0,1.41306,319.991,226.096)">
            <path d="M199.556,11.759C199.556,11.124 199.511,10.526 199.42,9.965C199.329,9.406 199.109,8.952 198.761,8.603C198.322,8.165 197.754,7.945 197.058,7.945C196.377,7.945 195.817,8.165 195.378,8.603C195.029,8.952 194.81,9.406 194.719,9.965C194.628,10.526 194.583,11.124 194.583,11.759C194.583,12.396 194.628,12.994 194.719,13.553C194.81,14.114 195.029,14.568 195.378,14.916C195.832,15.371 196.392,15.597 197.058,15.597C197.74,15.597 198.307,15.371 198.761,14.916C199.109,14.568 199.329,14.114 199.42,13.553C199.511,12.994 199.556,12.396 199.556,11.759ZM201.873,11.759C201.873,12.744 201.782,13.603 201.6,14.337C201.418,15.072 201.055,15.726 200.51,16.301C200.131,16.696 199.659,17.021 199.091,17.278C198.523,17.536 197.845,17.665 197.058,17.665C196.271,17.665 195.597,17.536 195.037,17.278C194.477,17.021 194.007,16.696 193.629,16.301C193.084,15.726 192.721,15.072 192.539,14.337C192.357,13.603 192.267,12.744 192.267,11.759C192.267,10.791 192.357,9.939 192.539,9.205C192.721,8.471 193.084,7.816 193.629,7.241C194.007,6.847 194.477,6.522 195.037,6.264C195.597,6.006 196.271,5.878 197.058,5.878C197.845,5.878 198.523,6.006 199.091,6.264C199.659,6.522 200.131,6.847 200.51,7.241C201.055,7.816 201.418,8.471 201.6,9.205C201.782,9.939 201.873,10.791 201.873,11.759Z" style="fill:rgb(65,64,66);fill-rule:nonzero;"/>
        </g>
        <g transform="matrix(1.41306,0,0,1.41306,319.991,226.096)">
            <path d="M207.118,7.99L207.118,17.528L204.802,17.528L204.802,7.99L203.485,7.99L203.485,6.218L204.802,6.218L204.802,4.448C204.802,4.039 204.866,3.641 204.995,3.255C205.124,2.869 205.316,2.529 205.574,2.233C205.831,1.938 206.157,1.7 206.551,1.518C206.944,1.336 207.413,1.246 207.958,1.246L209.411,1.246L209.411,3.221L208.39,3.221C207.95,3.221 207.63,3.338 207.425,3.573C207.221,3.808 207.118,4.137 207.118,4.561L207.118,6.218L209.411,6.218L209.411,7.99L207.118,7.99Z" style="fill:rgb(65,64,66);fill-rule:nonzero;"/>
        </g>
        <g transform="matrix(1.41306,0,0,1.41306,319.991,226.096)">
            <path d="M117.123,28.6C117.123,27.734 116.862,27.065 116.342,26.594C115.822,26.123 115.131,25.887 114.272,25.887L110.742,25.887L110.742,31.291L114.272,31.291C115.131,31.291 115.822,31.06 116.342,30.596C116.862,30.132 117.123,29.467 117.123,28.6ZM119.598,28.589C119.598,29.301 119.477,29.956 119.235,30.553C118.993,31.152 118.645,31.666 118.19,32.098C117.736,32.529 117.191,32.87 116.555,33.12C115.919,33.37 115.208,33.495 114.42,33.495L110.742,33.495L110.742,39.853L108.266,39.853L108.266,23.684L114.41,23.684C115.199,23.684 115.912,23.809 116.549,24.059C117.186,24.308 117.732,24.649 118.188,25.081C118.642,25.512 118.991,26.031 119.234,26.636C119.477,27.242 119.598,27.893 119.598,28.589Z" style="fill:rgb(245,130,31);fill-rule:nonzero;"/>
        </g>
        <g transform="matrix(1.41306,0,0,1.41306,319.991,226.096)">
            <path d="M128.047,31.041C127.79,30.783 127.536,30.59 127.287,30.461C127.037,30.332 126.715,30.268 126.321,30.268C125.685,30.268 125.144,30.499 124.697,30.96C124.25,31.423 124.027,32.055 124.027,32.857L124.027,39.853L121.71,39.853L121.71,28.337L123.981,28.337L123.981,29.586C124.284,29.178 124.708,28.845 125.253,28.587C125.799,28.33 126.396,28.202 127.048,28.202C127.608,28.202 128.106,28.285 128.547,28.451C128.985,28.618 129.401,28.898 129.796,29.291L128.047,31.041Z" style="fill:rgb(65,64,66);fill-rule:nonzero;"/>
        </g>
        <g transform="matrix(1.41306,0,0,1.41306,319.991,226.096)">
            <path d="M137.154,34.083C137.154,33.448 137.108,32.85 137.018,32.29C136.927,31.73 136.707,31.275 136.359,30.927C135.919,30.488 135.352,30.268 134.655,30.268C133.974,30.268 133.414,30.488 132.975,30.927C132.626,31.275 132.407,31.73 132.316,32.29C132.225,32.85 132.18,33.448 132.18,34.083C132.18,34.72 132.225,35.318 132.316,35.878C132.407,36.439 132.626,36.893 132.975,37.241C133.429,37.695 133.989,37.922 134.655,37.922C135.337,37.922 135.905,37.695 136.359,37.241C136.707,36.893 136.927,36.439 137.018,35.878C137.108,35.318 137.154,34.72 137.154,34.083ZM139.471,34.083C139.471,35.069 139.38,35.927 139.198,36.662C139.016,37.396 138.653,38.051 138.108,38.626C137.729,39.02 137.256,39.346 136.688,39.603C136.121,39.861 135.442,39.99 134.655,39.99C133.868,39.99 133.194,39.861 132.634,39.603C132.074,39.346 131.604,39.02 131.226,38.626C130.681,38.051 130.317,37.396 130.136,36.662C129.953,35.927 129.863,35.069 129.863,34.083C129.863,33.115 129.953,32.263 130.136,31.529C130.317,30.794 130.681,30.14 131.226,29.564C131.604,29.17 132.074,28.845 132.634,28.587C133.194,28.33 133.868,28.202 134.655,28.202C135.442,28.202 136.121,28.33 136.688,28.587C137.256,28.845 137.729,29.17 138.108,29.564C138.653,30.14 139.016,30.794 139.198,31.529C139.38,32.263 139.471,33.115 139.471,34.083Z" style="fill:rgb(65,64,66);fill-rule:nonzero;"/>
        </g>
        <g transform="matrix(1.41306,0,0,1.41306,319.991,226.096)">
            <path d="M144.715,30.314L144.715,39.853L142.398,39.853L142.398,30.314L141.081,30.314L141.081,28.541L142.398,28.541L142.398,26.77C142.398,26.362 142.463,25.964 142.591,25.578C142.72,25.192 142.913,24.851 143.171,24.556C143.428,24.26 143.753,24.022 144.147,23.84C144.541,23.659 145.01,23.568 145.556,23.568L147.009,23.568L147.009,25.543L145.987,25.543C145.548,25.543 145.226,25.662 145.022,25.896C144.817,26.13 144.715,26.46 144.715,26.884L144.715,28.541L147.009,28.541L147.009,30.314L144.715,30.314Z" style="fill:rgb(65,64,66);fill-rule:nonzero;"/>
        </g>
        <g transform="matrix(1.41306,0,0,1.41306,319.991,226.096)">
            <path d="M155.458,33.153C155.442,32.804 155.416,32.521 155.378,32.301C155.34,32.082 155.26,31.843 155.14,31.585C154.958,31.147 154.67,30.794 154.276,30.53C153.882,30.264 153.413,30.132 152.868,30.132C152.323,30.132 151.85,30.264 151.449,30.53C151.047,30.794 150.756,31.147 150.574,31.585C150.453,31.843 150.377,32.082 150.347,32.301C150.316,32.521 150.294,32.804 150.279,33.153L155.458,33.153ZM150.279,34.765C150.279,35.772 150.529,36.565 151.028,37.144C151.528,37.724 152.255,38.013 153.209,38.013C153.86,38.013 154.386,37.918 154.788,37.729C155.188,37.541 155.594,37.241 156.002,36.832L157.479,38.215C157.176,38.515 156.877,38.773 156.582,38.991C156.287,39.207 155.968,39.39 155.628,39.541C155.287,39.69 154.916,39.802 154.515,39.877C154.113,39.952 153.663,39.99 153.164,39.99C152.437,39.99 151.759,39.887 151.13,39.683C150.501,39.478 149.954,39.145 149.487,38.683C149.021,38.221 148.65,37.612 148.375,36.855C148.1,36.098 147.962,35.174 147.962,34.083C147.962,32.207 148.409,30.756 149.302,29.735C150.195,28.712 151.384,28.202 152.868,28.202C153.64,28.202 154.329,28.337 154.935,28.61C155.541,28.882 156.051,29.261 156.468,29.746C156.884,30.231 157.203,30.813 157.422,31.495C157.642,32.176 157.751,32.925 157.751,33.744L157.751,34.765L150.279,34.765Z" style="fill:rgb(65,64,66);fill-rule:nonzero;"/>
        </g>
        <g transform="matrix(1.41306,0,0,1.41306,319.991,226.096)">
            <path d="M168.742,36.332C168.742,36.938 168.621,37.468 168.378,37.922C168.136,38.376 167.803,38.759 167.379,39.07C166.955,39.38 166.448,39.611 165.857,39.762C165.267,39.914 164.631,39.99 163.949,39.99C163.01,39.99 162.14,39.879 161.337,39.66C160.535,39.441 159.793,38.998 159.112,38.332L160.633,36.809C161.103,37.294 161.629,37.616 162.212,37.775C162.794,37.934 163.374,38.013 163.949,38.013C164.661,38.013 165.259,37.885 165.744,37.627C166.228,37.37 166.471,36.968 166.471,36.423C166.471,36.03 166.353,35.715 166.119,35.481C165.884,35.247 165.486,35.106 164.926,35.061L163.086,34.902C161.996,34.811 161.156,34.512 160.565,34.004C159.975,33.498 159.679,32.737 159.679,31.722C159.679,31.162 159.793,30.662 160.02,30.223C160.247,29.784 160.558,29.416 160.951,29.122C161.345,28.826 161.803,28.599 162.326,28.44C162.848,28.281 163.412,28.202 164.018,28.202C164.881,28.202 165.676,28.3 166.402,28.497C167.129,28.694 167.757,29.027 168.288,29.496L166.834,30.972C166.471,30.669 166.042,30.454 165.551,30.325C165.059,30.197 164.54,30.132 163.995,30.132C163.298,30.132 162.776,30.268 162.428,30.541C162.079,30.813 161.905,31.169 161.905,31.608C161.905,31.957 162.015,32.249 162.235,32.483C162.454,32.717 162.874,32.865 163.495,32.925L165.312,33.084C166.402,33.175 167.247,33.482 167.845,34.004C168.443,34.527 168.742,35.303 168.742,36.332Z" style="fill:rgb(65,64,66);fill-rule:nonzero;"/>
        </g>
        <g transform="matrix(1.41306,0,0,1.41306,319.991,226.096)">
            <path d="M179.37,36.332C179.37,36.938 179.249,37.468 179.006,37.922C178.764,38.376 178.431,38.759 178.007,39.07C177.583,39.38 177.076,39.611 176.485,39.762C175.895,39.914 175.259,39.99 174.577,39.99C173.638,39.99 172.768,39.879 171.965,39.66C171.163,39.441 170.421,38.998 169.74,38.332L171.261,36.809C171.73,37.294 172.257,37.616 172.84,37.775C173.422,37.934 174.002,38.013 174.577,38.013C175.289,38.013 175.887,37.885 176.372,37.627C176.856,37.37 177.099,36.968 177.099,36.423C177.099,36.03 176.981,35.715 176.747,35.481C176.512,35.247 176.114,35.106 175.554,35.061L173.714,34.902C172.624,34.811 171.784,34.512 171.193,34.004C170.603,33.498 170.307,32.737 170.307,31.722C170.307,31.162 170.421,30.662 170.648,30.223C170.875,29.784 171.186,29.416 171.579,29.122C171.973,28.826 172.431,28.599 172.954,28.44C173.476,28.281 174.04,28.202 174.646,28.202C175.509,28.202 176.304,28.3 177.03,28.497C177.757,28.694 178.385,29.027 178.916,29.496L177.462,30.972C177.099,30.669 176.67,30.454 176.179,30.325C175.687,30.197 175.168,30.132 174.623,30.132C173.926,30.132 173.404,30.268 173.056,30.541C172.707,30.813 172.533,31.169 172.533,31.608C172.533,31.957 172.643,32.249 172.863,32.483C173.082,32.717 173.502,32.865 174.123,32.925L175.94,33.084C177.03,33.175 177.875,33.482 178.473,34.004C179.071,34.527 179.37,35.303 179.37,36.332Z" style="fill:rgb(65,64,66);fill-rule:nonzero;"/>
        </g>
        <g transform="matrix(1.41306,0,0,1.41306,319.991,226.096)">
            <path d="M181.617,39.853L181.617,28.337L183.933,28.337L183.933,39.853L181.617,39.853ZM181.548,26.066L181.548,23.613L184.001,23.613L184.001,26.066L181.548,26.066Z" style="fill:rgb(65,64,66);fill-rule:nonzero;"/>
        </g>
        <g transform="matrix(1.41306,0,0,1.41306,319.991,226.096)">
            <path d="M193.79,34.083C193.79,33.448 193.744,32.85 193.653,32.29C193.563,31.73 193.343,31.275 192.995,30.927C192.555,30.488 191.987,30.268 191.291,30.268C190.61,30.268 190.049,30.488 189.61,30.927C189.262,31.275 189.042,31.73 188.952,32.29C188.861,32.85 188.815,33.448 188.815,34.083C188.815,34.72 188.861,35.318 188.952,35.878C189.042,36.439 189.262,36.893 189.61,37.241C190.064,37.695 190.625,37.922 191.291,37.922C191.973,37.922 192.541,37.695 192.995,37.241C193.343,36.893 193.563,36.439 193.653,35.878C193.744,35.318 193.79,34.72 193.79,34.083ZM196.106,34.083C196.106,35.069 196.016,35.927 195.834,36.662C195.652,37.396 195.289,38.051 194.744,38.626C194.365,39.02 193.892,39.346 193.324,39.603C192.756,39.861 192.078,39.99 191.291,39.99C190.504,39.99 189.83,39.861 189.27,39.603C188.709,39.346 188.24,39.02 187.861,38.626C187.316,38.051 186.953,37.396 186.771,36.662C186.589,35.927 186.499,35.069 186.499,34.083C186.499,33.115 186.589,32.263 186.771,31.529C186.953,30.794 187.316,30.14 187.861,29.564C188.24,29.17 188.709,28.845 189.27,28.587C189.83,28.33 190.504,28.202 191.291,28.202C192.078,28.202 192.756,28.33 193.324,28.587C193.892,28.845 194.365,29.17 194.744,29.564C195.289,30.14 195.652,30.794 195.834,31.529C196.016,32.263 196.106,33.115 196.106,34.083Z" style="fill:rgb(65,64,66);fill-rule:nonzero;"/>
        </g>
        <g transform="matrix(1.41306,0,0,1.41306,319.991,226.096)">
            <path d="M205.689,39.853L205.689,32.834C205.689,31.942 205.465,31.291 205.019,30.881C204.572,30.472 204.023,30.268 203.373,30.268C202.721,30.268 202.161,30.476 201.691,30.893C201.222,31.309 200.987,31.957 200.987,32.834L200.987,39.853L198.671,39.853L198.671,28.337L200.942,28.337L200.942,29.496C201.335,29.057 201.801,28.732 202.339,28.519C202.876,28.307 203.433,28.202 204.008,28.202C204.599,28.202 205.133,28.292 205.61,28.474C206.086,28.656 206.499,28.914 206.848,29.246C207.286,29.685 207.589,30.173 207.756,30.711C207.923,31.249 208.006,31.843 208.006,32.494L208.006,39.853L205.689,39.853Z" style="fill:rgb(65,64,66);fill-rule:nonzero;"/>
        </g>
        <g transform="matrix(1.41306,0,0,1.41306,319.991,226.096)">
            <path d="M217.157,34.765L214.454,34.765C213.772,34.765 213.258,34.91 212.91,35.197C212.562,35.485 212.388,35.893 212.388,36.423C212.388,36.954 212.558,37.359 212.898,37.638C213.239,37.918 213.772,38.059 214.5,38.059C214.938,38.059 215.332,38.025 215.681,37.957C216.029,37.888 216.354,37.703 216.657,37.4C216.99,37.067 217.157,36.499 217.157,35.697L217.157,34.765ZM217.202,39.853L217.202,38.808C216.778,39.232 216.34,39.535 215.885,39.716C215.431,39.899 214.848,39.99 214.137,39.99C213.409,39.99 212.8,39.902 212.308,39.728C211.815,39.554 211.396,39.293 211.047,38.945C210.441,38.308 210.139,37.484 210.139,36.469C210.139,35.499 210.468,34.705 211.127,34.083C211.785,33.463 212.781,33.153 214.113,33.153L217.157,33.153L217.157,32.335C217.157,31.608 216.964,31.067 216.578,30.711C216.191,30.355 215.545,30.177 214.636,30.177C214,30.177 213.5,30.26 213.137,30.427C212.773,30.594 212.433,30.881 212.115,31.291L210.593,29.859C211.138,29.223 211.725,28.789 212.354,28.553C212.981,28.319 213.772,28.202 214.727,28.202C217.892,28.202 219.474,29.519 219.474,32.153L219.474,39.853L217.202,39.853Z" style="fill:rgb(65,64,66);fill-rule:nonzero;"/>
        </g>
        <g transform="matrix(1.41306,0,0,1.41306,319.991,226.096)">
            <path d="M225.559,39.853C225.014,39.853 224.54,39.766 224.139,39.592C223.737,39.417 223.408,39.187 223.151,38.899C222.894,38.612 222.704,38.275 222.583,37.888C222.462,37.502 222.401,37.097 222.401,36.673L222.401,23.681L224.718,23.681L224.718,36.537C224.718,36.976 224.809,37.309 224.991,37.537C225.173,37.763 225.498,37.877 225.968,37.877L226.989,37.877L226.989,39.853L225.559,39.853Z" style="fill:rgb(65,64,66);fill-rule:nonzero;"/>
        </g>
        <g transform="matrix(1.41306,0,0,1.41306,319.991,226.096)">
            <path d="M121.463,62.178L119.328,62.178L116.035,50.844L112.764,62.178L110.629,62.178L106.404,46.006L108.994,46.006L111.81,57.568L115.058,46.006L117.034,46.006L120.282,57.568L123.098,46.006L125.688,46.006L121.463,62.178Z" style="fill:rgb(245,130,31);fill-rule:nonzero;"/>
        </g>
        <g transform="matrix(1.41306,0,0,1.41306,319.991,226.096)">
            <path d="M127.209,62.178L127.209,50.663L129.524,50.663L129.524,62.178L127.209,62.178ZM127.141,48.391L127.141,45.938L129.593,45.938L129.593,48.391L127.141,48.391Z" style="fill:rgb(65,64,66);fill-rule:nonzero;"/>
        </g>
        <g transform="matrix(1.41306,0,0,1.41306,319.991,226.096)">
            <path d="M135.726,62.178C135.181,62.178 134.708,62.091 134.307,61.917C133.905,61.743 133.576,61.512 133.318,61.224C133.061,60.937 132.872,60.6 132.75,60.213C132.629,59.828 132.569,59.422 132.569,58.999L132.569,46.006L134.886,46.006L134.886,58.862C134.886,59.301 134.977,59.634 135.158,59.862C135.34,60.088 135.666,60.203 136.135,60.203L137.157,60.203L137.157,62.178L135.726,62.178Z" style="fill:rgb(65,64,66);fill-rule:nonzero;"/>
        </g>
        <g transform="matrix(1.41306,0,0,1.41306,319.991,226.096)">
            <path d="M142.222,62.178C141.677,62.178 141.203,62.091 140.802,61.917C140.401,61.743 140.071,61.512 139.814,61.224C139.557,60.937 139.367,60.6 139.246,60.213C139.125,59.828 139.064,59.422 139.064,58.999L139.064,46.006L141.381,46.006L141.381,58.862C141.381,59.301 141.472,59.634 141.654,59.862C141.835,60.088 142.161,60.203 142.63,60.203L143.653,60.203L143.653,62.178L142.222,62.178Z" style="fill:rgb(65,64,66);fill-rule:nonzero;"/>
        </g>
        <g transform="matrix(1.41306,0,0,1.41306,319.991,226.096)">
            <path d="M156.44,62.178L154.464,62.178L151.762,54.138L149.082,62.178L147.083,62.178L143.517,50.663L145.97,50.663L148.195,58.771L150.875,50.663L152.67,50.663L155.328,58.771L157.553,50.663L160.029,50.663L156.44,62.178Z" style="fill:rgb(65,64,66);fill-rule:nonzero;"/>
        </g>
        <g transform="matrix(1.41306,0,0,1.41306,319.991,226.096)">
            <path d="M167.819,53.366C167.562,53.108 167.308,52.916 167.059,52.787C166.809,52.658 166.487,52.593 166.093,52.593C165.457,52.593 164.916,52.825 164.469,53.286C164.022,53.749 163.799,54.38 163.799,55.182L163.799,62.178L161.482,62.178L161.482,50.663L163.753,50.663L163.753,51.912C164.056,51.503 164.48,51.17 165.025,50.913C165.571,50.655 166.168,50.527 166.82,50.527C167.38,50.527 167.879,50.61 168.319,50.776C168.758,50.943 169.174,51.223 169.568,51.617L167.819,53.366Z" style="fill:rgb(65,64,66);fill-rule:nonzero;"/>
        </g>
        <g transform="matrix(1.41306,0,0,1.41306,319.991,226.096)">
            <path d="M170.886,62.178L170.886,50.663L173.202,50.663L173.202,62.178L170.886,62.178ZM170.817,48.391L170.817,45.938L173.271,45.938L173.271,48.391L170.817,48.391Z" style="fill:rgb(65,64,66);fill-rule:nonzero;"/>
        </g>
        <g transform="matrix(1.41306,0,0,1.41306,319.991,226.096)">
            <path d="M179.744,62.178C179.198,62.178 178.729,62.087 178.335,61.906C177.941,61.724 177.616,61.486 177.359,61.19C177.101,60.895 176.908,60.554 176.779,60.168C176.651,59.782 176.586,59.384 176.586,58.976L176.586,52.639L175.269,52.639L175.269,50.867L176.586,50.867L176.586,47.37L178.903,47.37L178.903,50.867L181.129,50.867L181.129,52.639L178.903,52.639L178.903,58.862C178.903,59.287 179.005,59.616 179.21,59.85C179.414,60.085 179.736,60.203 180.175,60.203L181.129,60.203L181.129,62.178L179.744,62.178Z" style="fill:rgb(65,64,66);fill-rule:nonzero;"/>
        </g>
        <g transform="matrix(1.41306,0,0,1.41306,319.991,226.096)">
            <path d="M190.351,55.478C190.335,55.129 190.309,54.846 190.271,54.626C190.233,54.407 190.153,54.168 190.033,53.911C189.851,53.472 189.563,53.12 189.169,52.855C188.775,52.589 188.306,52.457 187.761,52.457C187.216,52.457 186.743,52.589 186.342,52.855C185.94,53.12 185.649,53.472 185.467,53.911C185.346,54.168 185.27,54.407 185.24,54.626C185.209,54.846 185.187,55.129 185.172,55.478L190.351,55.478ZM185.172,57.09C185.172,58.097 185.422,58.89 185.921,59.469C186.421,60.049 187.148,60.338 188.102,60.338C188.753,60.338 189.279,60.244 189.681,60.054C190.082,59.866 190.487,59.566 190.896,59.158L192.372,60.541C192.069,60.84 191.77,61.098 191.475,61.316C191.18,61.533 190.861,61.715 190.521,61.866C190.18,62.015 189.809,62.127 189.408,62.203C189.006,62.277 188.556,62.315 188.057,62.315C187.33,62.315 186.652,62.212 186.023,62.008C185.394,61.803 184.847,61.47 184.38,61.008C183.914,60.546 183.543,59.937 183.268,59.18C182.993,58.423 182.855,57.499 182.855,56.409C182.855,54.532 183.302,53.082 184.195,52.06C185.088,51.038 186.277,50.527 187.761,50.527C188.533,50.527 189.222,50.663 189.828,50.935C190.434,51.207 190.944,51.586 191.361,52.071C191.777,52.556 192.096,53.138 192.315,53.82C192.535,54.501 192.645,55.25 192.645,56.069L192.645,57.09L185.172,57.09Z" style="fill:rgb(65,64,66);fill-rule:nonzero;"/>
        </g>
        <g transform="matrix(1.41306,0,0,1.41306,319.991,226.096)">
            <path d="M201.457,53.366C201.199,53.108 200.946,52.916 200.696,52.787C200.446,52.658 200.125,52.593 199.731,52.593C199.095,52.593 198.553,52.825 198.107,53.286C197.66,53.749 197.437,54.38 197.437,55.182L197.437,62.178L195.12,62.178L195.12,50.663L197.391,50.663L197.391,51.912C197.694,51.503 198.118,51.17 198.663,50.913C199.208,50.655 199.806,50.527 200.458,50.527C201.018,50.527 201.517,50.61 201.957,50.776C202.396,50.943 202.812,51.223 203.206,51.617L201.457,53.366Z" style="fill:rgb(65,64,66);fill-rule:nonzero;"/>
        </g>
        <g transform="matrix(1.41306,0,0,1.41306,319.991,226.096)">
            <path d="M212.813,58.658C212.813,59.263 212.691,59.793 212.45,60.248C212.207,60.702 211.874,61.084 211.45,61.395C211.026,61.706 210.52,61.936 209.929,62.087C209.338,62.239 208.702,62.315 208.021,62.315C207.081,62.315 206.211,62.205 205.409,61.985C204.606,61.766 203.864,61.323 203.183,60.657L204.705,59.134C205.174,59.62 205.7,59.941 206.283,60.1C206.866,60.259 207.445,60.338 208.021,60.338C208.732,60.338 209.33,60.21 209.815,59.953C210.3,59.695 210.542,59.293 210.542,58.749C210.542,58.355 210.425,58.041 210.189,57.806C209.955,57.572 209.558,57.431 208.997,57.386L207.157,57.227C206.067,57.136 205.227,56.837 204.637,56.33C204.046,55.823 203.75,55.062 203.75,54.047C203.75,53.487 203.864,52.987 204.091,52.548C204.318,52.109 204.629,51.742 205.022,51.447C205.416,51.151 205.875,50.924 206.397,50.765C206.919,50.606 207.483,50.527 208.089,50.527C208.952,50.527 209.747,50.625 210.474,50.822C211.2,51.019 211.829,51.352 212.359,51.821L210.905,53.297C210.542,52.995 210.114,52.779 209.622,52.65C209.13,52.522 208.611,52.457 208.066,52.457C207.37,52.457 206.847,52.593 206.499,52.866C206.15,53.138 205.977,53.495 205.977,53.933C205.977,54.282 206.086,54.574 206.306,54.808C206.525,55.042 206.945,55.19 207.566,55.25L209.384,55.41C210.474,55.5 211.317,55.807 211.916,56.33C212.514,56.852 212.813,57.628 212.813,58.658Z" style="fill:rgb(65,64,66);fill-rule:nonzero;"/>
        </g>
        <g transform="matrix(1.41306,0,0,1.41306,319.991,226.096)">
            <path d="M70.382,78.998C71.544,78.998 72.481,79.934 72.481,81.096C72.481,82.258 71.544,83.195 70.382,83.195C69.221,83.195 68.284,82.258 68.284,81.096C68.284,79.934 69.221,78.998 70.382,78.998Z" style="fill:rgb(245,130,31);fill-rule:nonzero;"/>
        </g>
        <g transform="matrix(1.41306,0,0,1.41306,319.991,226.096)">
            <path d="M82.715,76.899L83.889,76.899L86.948,83.942L90.006,76.899L91.121,76.899L91.121,85.293L90.338,85.293L90.338,77.895L90.315,77.895L87.114,85.293L86.77,85.293L83.521,77.895L83.498,77.895L83.498,85.293L82.715,85.293L82.715,76.899Z" style="fill:rgb(88,89,91);fill-rule:nonzero;"/>
        </g>
        <g transform="matrix(1.41306,0,0,1.41306,319.991,226.096)">
            <path d="M95.948,76.899L101.083,76.899L101.083,77.611L96.731,77.611L96.731,80.598L100.81,80.598L100.81,81.31L96.731,81.31L96.731,84.582L101.272,84.582L101.272,85.293L95.948,85.293L95.948,76.899Z" style="fill:rgb(88,89,91);fill-rule:nonzero;"/>
        </g>
        <g transform="matrix(1.41306,0,0,1.41306,319.991,226.096)">
            <path d="M105.506,76.899L106.68,76.899L109.739,83.942L112.798,76.899L113.913,76.899L113.913,85.293L113.13,85.293L113.13,77.895L113.106,77.895L109.905,85.293L109.562,85.293L106.313,77.895L106.289,77.895L106.289,85.293L105.506,85.293L105.506,76.899Z" style="fill:rgb(88,89,91);fill-rule:nonzero;"/>
        </g>
        <g transform="matrix(1.41306,0,0,1.41306,319.991,226.096)">
            <path d="M119.522,84.582L121.313,84.582C123.15,84.582 123.447,83.562 123.447,82.969C123.447,81.725 122.427,81.239 121.431,81.239L119.522,81.239L119.522,84.582ZM119.522,80.527L121.146,80.527C122.771,80.527 123.079,79.638 123.079,79.117C123.079,77.943 122.25,77.611 121.253,77.611L119.522,77.611L119.522,80.527ZM118.74,76.899L121.159,76.899C122.439,76.899 123.862,77.219 123.862,79.117C123.862,79.97 123.352,80.658 122.356,80.859L122.356,80.883C123.458,80.966 124.229,81.772 124.229,82.946C124.229,84.878 122.558,85.293 121.419,85.293L118.74,85.293L118.74,76.899Z" style="fill:rgb(88,89,91);fill-rule:nonzero;"/>
        </g>
        <g transform="matrix(1.41306,0,0,1.41306,319.991,226.096)">
            <path d="M128.819,76.899L133.953,76.899L133.953,77.611L129.602,77.611L129.602,80.598L133.68,80.598L133.68,81.31L129.602,81.31L129.602,84.582L134.143,84.582L134.143,85.293L128.819,85.293L128.819,76.899Z" style="fill:rgb(88,89,91);fill-rule:nonzero;"/>
        </g>
        <g transform="matrix(1.41306,0,0,1.41306,319.991,226.096)">
            <path d="M139.242,80.598L140.902,80.598C142.55,80.598 142.87,79.685 142.87,79.105C142.87,78.524 142.55,77.611 140.902,77.611L139.242,77.611L139.242,80.598ZM138.459,76.899L140.665,76.899C141.329,76.899 143.652,76.899 143.652,79.105C143.652,80.706 142.432,81.144 141.507,81.262L143.949,85.293L143.06,85.293L140.7,81.31L139.242,81.31L139.242,85.293L138.459,85.293L138.459,76.899Z" style="fill:rgb(88,89,91);fill-rule:nonzero;"/>
        </g>
        <g transform="matrix(1.41306,0,0,1.41306,319.991,226.096)">
            <path d="M155.605,78.998C156.768,78.998 157.704,79.934 157.704,81.096C157.704,82.258 156.768,83.195 155.605,83.195C154.444,83.195 153.507,82.258 153.507,81.096C153.507,79.934 154.444,78.998 155.605,78.998Z" style="fill:rgb(245,130,31);fill-rule:nonzero;"/>
        </g>
        <g transform="matrix(1.41306,0,0,1.41306,319.991,226.096)">
            <path d="M95.004,32.353C95.004,48.755 73.759,62.053 47.553,62.053C21.347,62.053 0.103,48.755 0.103,32.353C0.103,15.954 21.347,2.653 47.553,2.653C73.759,2.653 95.004,15.954 95.004,32.353Z" style="fill:rgb(245,130,31);fill-rule:nonzero;"/>
        </g>
        <g transform="matrix(1.41306,0,0,1.41306,319.991,226.096)">
            <path d="M75.998,13.41C73.849,18.201 71.74,23.062 69.341,27.734C68.292,29.774 66.918,31.532 65.261,33.109C63.422,34.863 60.166,31.176 58.622,29.829C53.396,25.265 48.465,18.347 44.464,12.672C42.647,16.676 40.854,20.687 39.064,24.683C39.147,25.074 40.34,26.47 40.505,26.669C46.397,33.823 51,41.923 57.59,48.506C59.241,50.153 61.086,51.563 63.015,52.861C65.103,54.265 66.732,51.333 67.939,49.696C71.108,45.4 72.998,39.622 75.204,34.811C78.516,27.578 81.754,20.23 85.074,12.896C83.012,11.298 80.71,9.825 78.189,8.506C77.459,10.147 76.73,11.781 75.998,13.41Z" style="fill:white;fill-rule:nonzero;"/>
        </g>
        <g transform="matrix(1.41306,0,0,1.41306,319.991,226.096)">
            <path d="M0.534,28.481C6.426,35.633 11.028,43.735 17.621,50.318C19.27,51.963 21.118,53.376 23.046,54.673C25.133,56.076 26.762,53.146 27.97,51.507C31.137,47.213 33.03,41.432 35.234,36.627C40.553,25.013 45.675,13.105 51.262,1.445C49.649,1.346 48.016,1.293 46.362,1.293C44.955,1.293 43.566,1.338 42.189,1.41C40.124,6.036 38.082,10.651 36.028,15.223C33.879,20.013 31.771,24.876 29.373,29.543C28.323,31.585 26.949,33.342 25.292,34.92C23.45,36.673 20.196,32.989 18.652,31.641C13.248,26.922 9.312,20.84 5.164,14.987C3.234,16.77 1.603,18.69 0.29,20.71C0.051,23.385 -0.322,27.443 0.534,28.481Z" style="fill:white;fill-rule:nonzero;"/>
        </g>
        <g transform="matrix(1.41306,0,0,1.41306,319.991,226.096)">
            <path d="M0.218,71.104L228.83,71.104" style="fill:none;stroke:rgb(245,130,31);stroke-width:0.5px;"/>
        </g>
        <g transform="matrix(1.41306,0,0,1.41306,319.991,226.096)">
            <path d="M0.218,90.75L228.83,90.75" style="fill:none;stroke:rgb(245,130,31);stroke-width:0.5px;"/>
        </g>
    </g>
    <g transform="matrix(0.581111,0,0,0.581111,294.544,482.057)">
        <text x="116.114px" y="316.749px" style="font-family:'LiberationSans', 'Liberation Sans', sans-serif;font-size:27.95px;">This rm complies with the IPW Code of Practice</text>
    </g>
</svg>
