<?xml version="1.0" encoding="UTF-8" standalone="no"?>
<!DOCTYPE svg PUBLIC "-//W3C//DTD SVG 1.1//EN" "http://www.w3.org/Graphics/SVG/1.1/DTD/svg11.dtd">
<svg width="100%" height="100%" viewBox="0 0 1075 721" version="1.1" xmlns="http://www.w3.org/2000/svg" xmlns:xlink="http://www.w3.org/1999/xlink" xml:space="preserve" xmlns:serif="http://www.serif.com/" style="fill-rule:evenodd;clip-rule:evenodd;stroke-linejoin:round;stroke-miterlimit:1.41421;">
    <rect x="0" y="0" width="1074.8" height="720.472" style="fill:white;"/>
    <g transform="matrix(1,0,0,0.6209,0,273.131)">
        <rect x="0" y="297.869" width="1074.8" height="422.603" style="fill:rgb(86,86,86);"/>
    </g>
    <g transform="matrix(1,0,0,0.453321,0,393.867)">
        <rect x="0" y="0" width="1074.8" height="720.472" style="fill:rgb(113,218,229);"/>
    </g>
    <g transform="matrix(0.821929,0,0,0.821929,-147.837,145.624)">
        <text x="251.666px" y="404.03px" style="font-family:'LiberationSans-Bold', 'Liberation Sans', sans-serif;font-weight:700;font-size:50px;fill:rgb(2,1,80);">W<tspan x="298.419px 312.311px " y="404.03px 404.03px ">il</tspan>ls, T<tspan x="423.468px 442.926px " y="404.03px 404.03px ">ru</tspan>sts and Estate Planning</text>
        <text x="251.666px" y="475.002px" style="font-family:'LiberationSans-Bold', 'Liberation Sans', sans-serif;font-weight:700;font-size:50px;fill:rgb(2,1,80);">Lasting Power of <tspan x="666.51px 702.618px " y="475.002px 475.002px ">At</tspan>torney</text>
        <text x="251.666px" y="545.973px" style="font-family:'LiberationSans-Bold', 'Liberation Sans', sans-serif;font-weight:700;font-size:50px;fill:rgb(2,1,80);">Estate <tspan x="413.776px 449.884px " y="545.973px 545.973px ">Ad</tspan>ministration and Probate</text>
        <text x="251.666px" y="616.944px" style="font-family:'LiberationSans-Bold', 'Liberation Sans', sans-serif;font-weight:700;font-size:50px;fill:rgb(2,1,80);">Advising the Elderly and V<tspan x="880.499px 911.041px " y="616.944px 616.944px ">ul</tspan>nerable</text>
    </g>
    <g transform="matrix(0.763599,0,0,0.763599,82.0423,81.8019)">
        <g transform="matrix(13.6224,0,0,13.6224,102.608,-84.1359)">
            <text x="17.567px" y="28.437px" style="font-family:'LiberationSerif', 'Liberation Serif', serif;font-size:7.481px;fill:rgb(82,15,89);">Legal Services</text>
        </g>
        <g transform="matrix(14.5564,0,0,14.5564,81.9716,-108.472)">
            <text x="17.567px" y="20.638px" style="font-family:'LiberationSerif', 'Liberation Serif', serif;font-size:12px;fill:rgb(82,15,89);">Goldcrest</text>
        </g>
        <g transform="matrix(17.6599,0,0,17.6599,59.0551,-804.996)">
            <g id="path1378-1-80" transform="matrix(0.153981,0,0,0.153981,-0.518944,49.5472)">
                <path d="M20.744,36.23C19.078,36.255 17.417,36.423 15.794,36.787C15.794,36.787 14.424,39.195 13.691,41.688C7.972,61.153 28.242,85.644 48.708,80.794C57.912,64.588 44.827,38.297 23.41,36.337C22.524,36.256 21.636,36.224 20.744,36.23ZM57.265,81.291C58.214,81.233 63.522,80.841 67.336,79.194C83.029,72.417 92.975,51.658 84.54,36.805C82.778,36.389 80.937,36.225 79.105,36.228C75.232,36.26 71.393,37.149 67.896,38.794C69.492,43.125 70.308,47.801 70.335,52.48C70.475,59.377 68.879,66.385 65.219,72.429C63.157,75.834 60.448,78.923 57.265,81.291ZM64.551,42.713C62.28,35.088 57.412,28.507 50.128,25.335C50.109,25.343 50.09,25.352 50.07,25.36C44.91,27.665 40.675,31.879 38.006,36.912C51.065,45.361 59.394,62.286 54.879,77.406C54.879,77.406 58.334,74.535 60.745,71.19C65.713,63.38 67.334,52.436 64.551,42.713Z" style="fill:rgb(220,201,51);fill-rule:nonzero;"/>
            </g>
            <g transform="matrix(0.225166,0,0,0.225166,0,49.5894)">
                <path d="M32,0C49.661,0 64,14.339 64,32C64,49.661 49.661,64 32,64C14.339,64 0,49.661 0,32C0,14.339 14.339,0 32,0ZM32,3.071C47.966,3.071 60.929,16.034 60.929,32C60.929,47.966 47.966,60.929 32,60.929C16.034,60.929 3.071,47.966 3.071,32C3.071,16.034 16.034,3.071 32,3.071Z" style="fill:rgb(181,181,181);"/>
            </g>
        </g>
        <g transform="matrix(4.01017,0,0,4.01017,879.064,170.115)">
            <text x="17.567px" y="33.148px" style="font-family:'LiberationSerif', 'Liberation Serif', serif;font-size:12px;fill:rgb(82,15,89);">Ltd</text>
        </g>
    </g>
</svg>
