<?xml version="1.0" encoding="UTF-8" standalone="no"?>
<!DOCTYPE svg PUBLIC "-//W3C//DTD SVG 1.1//EN" "http://www.w3.org/Graphics/SVG/1.1/DTD/svg11.dtd">
<svg width="100%" height="100%" viewBox="0 0 1749 2481" version="1.1" xmlns="http://www.w3.org/2000/svg" xmlns:xlink="http://www.w3.org/1999/xlink" xml:space="preserve" xmlns:serif="http://www.serif.com/" style="fill-rule:evenodd;clip-rule:evenodd;stroke-linejoin:round;stroke-miterlimit:1.41421;">
    <g transform="matrix(1.08824,0,0,2.51852,-77.119,-2342.52)">
        <rect x="70.866" y="930.118" width="1606.3" height="984.831" style="fill:rgb(114,65,167);"/>
    </g>
    <g transform="matrix(28.1843,-21.63,21.63,28.1843,-616.81,1263.11)">
        <path d="M32,0C49.661,0 64,14.339 64,32C64,49.661 49.661,64 32,64C14.339,64 0,49.661 0,32C0,14.339 14.339,0 32,0ZM32,3.071C47.966,3.071 60.929,16.034 60.929,32C60.929,47.966 47.966,60.929 32,60.929C16.034,60.929 3.071,47.966 3.071,32C3.071,16.034 16.034,3.071 32,3.071ZM11.881,24.588C10.742,24.605 9.606,24.72 8.496,24.97C8.496,24.97 7.559,26.616 7.058,28.321C3.147,41.633 17.009,58.381 31.005,55.064C37.299,43.981 28.35,26.002 13.704,24.662C13.098,24.606 12.491,24.584 11.881,24.588ZM36.856,55.404C37.506,55.364 41.135,55.096 43.743,53.97C54.475,49.335 61.277,35.139 55.509,24.982C54.303,24.697 53.045,24.585 51.792,24.587C49.143,24.609 46.518,25.217 44.126,26.342C45.218,29.304 45.776,32.501 45.795,35.701C45.89,40.418 44.799,45.21 42.296,49.344C40.886,51.672 39.033,53.784 36.856,55.404ZM41.839,29.022C40.286,23.807 36.957,19.307 31.976,17.138C31.963,17.144 31.949,17.149 31.936,17.155C28.407,18.731 25.512,21.613 23.686,25.055C32.616,30.833 38.313,42.407 35.225,52.747C35.225,52.747 37.588,50.784 39.236,48.496C42.633,43.155 43.742,35.671 41.839,29.022Z" style="fill:white;fill-opacity:0.176471;"/>
    </g>
</svg>
